solid STRIDE
facet normal -0.0 -1.0 -0.0
outer loop
vertex 5.86855892137706 3.81083409268335 1.51200000000004
vertex 1.86855892137708 3.81083409268335 0.0
vertex 5.86855892137706 3.81083409268335 0.0
endloop
endfacet
facet normal -0.0 -1.0 -0.0
outer loop
vertex 1.86855892137708 3.81083409268335 0.0
vertex 5.86855892137706 3.81083409268335 1.51200000000004
vertex 1.86855892137708 3.81083409268335 1.51200000000004
endloop
endfacet
facet normal -1.0 0.0 0.0
outer loop
vertex 1.86855892137708 3.81083409268335 1.51200000000004
vertex 1.86855892137708 5.25554408584226 0.733004266975848
vertex 1.86855892137708 3.81083409268335 0.0
endloop
endfacet
facet normal -1.0 0.0 0.0
outer loop
vertex 1.86855892137708 5.25554408584226 0.733004266975848
vertex 1.86855892137708 3.81083409268335 1.51200000000004
vertex 1.86855892137708 6.81083409268335 1.51200000000004
endloop
endfacet
facet normal -1.0 0.0 0.0
outer loop
vertex 1.86855892137708 3.81083409268335 0.0
vertex 1.86855892137708 5.25554408584226 0.733004266975848
vertex 1.86855892137708 5.18949822255048 0.682325493627709
endloop
endfacet
facet normal -1.0 0.0 0.0
outer loop
vertex 1.86855892137708 3.81083409268335 0.0
vertex 1.86855892137708 5.18949822255048 0.682325493627709
vertex 1.86855892137708 5.13881944920232 0.616279630335943
endloop
endfacet
facet normal -1.0 0.0 0.0
outer loop
vertex 1.86855892137708 3.81083409268335 0.0
vertex 1.86855892137708 5.13881944920232 0.616279630335943
vertex 1.86855892137708 5.10696144045083 0.539367593537933
endloop
endfacet
facet normal -1.0 0.0 0.0
outer loop
vertex 1.86855892137708 3.81083409268335 0.0
vertex 1.86855892137708 5.10696144045083 0.539367593537933
vertex 1.86855892137708 5.09609526694458 0.456830811438311
endloop
endfacet
facet normal -1.0 0.0 0.0
outer loop
vertex 1.86855892137708 5.25554408584226 0.733004266975848
vertex 1.86855892137708 6.81083409268335 1.51200000000004
vertex 1.86855892137708 5.33245612264028 0.764862275727313
endloop
endfacet
facet normal -1.0 0.0 0.0
outer loop
vertex 1.86855892137708 5.33245612264028 0.764862275727313
vertex 1.86855892137708 6.81083409268335 1.51200000000004
vertex 1.86855892137708 5.4149929047399 0.775728449233544
endloop
endfacet
facet normal -1.0 0.0 0.0
outer loop
vertex 1.86855892137708 5.4149929047399 0.775728449233544
vertex 1.86855892137708 6.81083409268335 1.51200000000004
vertex 1.86855892137708 5.49752968683952 0.764862275727291
endloop
endfacet
facet normal -1.0 0.0 0.0
outer loop
vertex 1.86855892137708 5.49752968683952 0.764862275727291
vertex 1.86855892137708 6.81083409268335 1.51200000000004
vertex 1.86855892137708 5.57444172363753 0.733004266975804
endloop
endfacet
facet normal -1.0 0.0 0.0
outer loop
vertex 1.86855892137708 5.57444172363753 0.733004266975804
vertex 1.86855892137708 6.81083409268335 1.51200000000004
vertex 1.86855892137708 5.6404875869293 0.682325493627649
endloop
endfacet
facet normal -1.0 0.0 0.0
outer loop
vertex 1.86855892137708 5.6404875869293 0.682325493627649
vertex 1.86855892137708 6.81083409268335 1.51200000000004
vertex 1.86855892137708 5.69116636027744 0.616279630335869
endloop
endfacet
facet normal -1.0 0.0 0.0
outer loop
vertex 1.86855892137708 5.69116636027744 0.616279630335869
vertex 1.86855892137708 6.81083409268335 1.51200000000004
vertex 1.86855892137708 5.7230243690289 0.53936759353785
endloop
endfacet
facet normal -1.0 0.0 0.0
outer loop
vertex 1.86855892137708 5.7230243690289 0.53936759353785
vertex 1.86855892137708 6.81083409268335 1.51200000000004
vertex 1.86855892137708 5.73389054253513 0.456830811438225
endloop
endfacet
facet normal -1.0 0.0 0.0
outer loop
vertex 1.86855892137708 3.81083409268335 0.0
vertex 1.86855892137708 5.41499290473981 0.137933173642993
vertex 1.86855892137708 6.81083409268335 0.0
endloop
endfacet
facet normal -1.0 0.0 0.0
outer loop
vertex 1.86855892137708 5.41499290473981 0.137933173642993
vertex 1.86855892137708 3.81083409268335 0.0
vertex 1.86855892137708 5.3324561226402 0.148799347149245
endloop
endfacet
facet normal -1.0 0.0 0.0
outer loop
vertex 1.86855892137708 5.3324561226402 0.148799347149245
vertex 1.86855892137708 3.81083409268335 0.0
vertex 1.86855892137708 5.25554408584218 0.180657355900732
endloop
endfacet
facet normal -1.0 0.0 0.0
outer loop
vertex 1.86855892137708 5.25554408584218 0.180657355900732
vertex 1.86855892137708 3.81083409268335 0.0
vertex 1.86855892137708 5.18949822255042 0.231336129248888
endloop
endfacet
facet normal -1.0 0.0 0.0
outer loop
vertex 1.86855892137708 5.18949822255042 0.231336129248888
vertex 1.86855892137708 3.81083409268335 0.0
vertex 1.86855892137708 5.13881944920228 0.297381992540667
endloop
endfacet
facet normal -1.0 0.0 0.0
outer loop
vertex 1.86855892137708 5.13881944920228 0.297381992540667
vertex 1.86855892137708 3.81083409268335 0.0
vertex 1.86855892137708 5.10696144045081 0.374294029338686
endloop
endfacet
facet normal -1.0 0.0 0.0
outer loop
vertex 1.86855892137708 5.10696144045081 0.374294029338686
vertex 1.86855892137708 3.81083409268335 0.0
vertex 1.86855892137708 5.09609526694458 0.456830811438311
endloop
endfacet
facet normal -1.0 0.0 0.0
outer loop
vertex 1.86855892137708 6.81083409268335 0.0
vertex 1.86855892137708 5.41499290473981 0.137933173642993
vertex 1.86855892137708 5.49752968683944 0.148799347149223
endloop
endfacet
facet normal -1.0 0.0 0.0
outer loop
vertex 1.86855892137708 6.81083409268335 0.0
vertex 1.86855892137708 5.49752968683944 0.148799347149223
vertex 1.86855892137708 5.57444172363746 0.180657355900689
endloop
endfacet
facet normal -1.0 0.0 0.0
outer loop
vertex 1.86855892137708 6.81083409268335 0.0
vertex 1.86855892137708 5.57444172363746 0.180657355900689
vertex 1.86855892137708 5.64048758692924 0.231336129248827
endloop
endfacet
facet normal -1.0 0.0 0.0
outer loop
vertex 1.86855892137708 6.81083409268335 0.0
vertex 1.86855892137708 5.64048758692924 0.231336129248827
vertex 1.86855892137708 5.69116636027739 0.297381992540593
endloop
endfacet
facet normal -1.0 0.0 0.0
outer loop
vertex 1.86855892137708 6.81083409268335 0.0
vertex 1.86855892137708 5.69116636027739 0.297381992540593
vertex 1.86855892137708 5.72302436902888 0.374294029338604
endloop
endfacet
facet normal -1.0 0.0 0.0
outer loop
vertex 1.86855892137708 6.81083409268335 0.0
vertex 1.86855892137708 5.72302436902888 0.374294029338604
vertex 1.86855892137708 5.73389054253513 0.456830811438225
endloop
endfacet
facet normal -1.0 0.0 0.0
outer loop
vertex 1.86855892137708 6.81083409268335 0.0
vertex 1.86855892137708 5.73389054253513 0.456830811438225
vertex 1.86855892137708 6.81083409268335 1.51200000000004
endloop
endfacet
facet normal 2.22044604925032e-16 1.0 0.0
outer loop
vertex 1.86855892137708 6.81083409268335 0.0
vertex 5.63342595226514 6.81083409268335 0.0403418582393352
vertex 5.86855892137706 6.81083409268335 0.0
endloop
endfacet
facet normal 2.22044604925032e-16 1.0 0.0
outer loop
vertex 5.63342595226514 6.81083409268335 0.0403418582393352
vertex 1.86855892137708 6.81083409268335 0.0
vertex 1.86855892137708 6.81083409268335 1.51200000000004
endloop
endfacet
facet normal 2.22044604925032e-16 1.0 0.0
outer loop
vertex 5.86855892137706 6.81083409268335 0.0
vertex 5.63342595226514 6.81083409268335 0.0403418582393352
vertex 5.65801376154988 6.81083409268335 0.0371048117367967
endloop
endfacet
facet normal 2.22044604925032e-16 1.0 0.0
outer loop
vertex 5.63342595226514 6.81083409268335 0.0403418582393352
vertex 1.86855892137708 6.81083409268335 1.51200000000004
vertex 5.61051376154988 6.81083409268335 0.0498323983772746
endloop
endfacet
facet normal 2.22044604925032e-16 1.0 0.0
outer loop
vertex 5.61051376154988 6.81083409268335 0.0498323983772746
vertex 1.86855892137708 6.81083409268335 1.51200000000004
vertex 5.59083861733716 6.81083409268335 0.0649296675240745
endloop
endfacet
facet normal 2.22044604925032e-16 1.0 0.0
outer loop
vertex 5.59083861733716 6.81083409268335 0.0649296675240745
vertex 1.86855892137708 6.81083409268335 1.51200000000004
vertex 5.57574134819035 6.81083409268335 0.0846048117367961
endloop
endfacet
facet normal 2.22044604925032e-16 1.0 0.0
outer loop
vertex 5.57574134819035 6.81083409268335 0.0846048117367961
vertex 1.86855892137708 6.81083409268335 1.51200000000004
vertex 5.56625080805242 6.81083409268335 0.107517002452057
endloop
endfacet
facet normal 2.22044604925032e-16 1.0 0.0
outer loop
vertex 5.56625080805242 6.81083409268335 0.107517002452057
vertex 1.86855892137708 6.81083409268335 1.51200000000004
vertex 5.56301376154988 6.81083409268335 0.132104811736797
endloop
endfacet
facet normal 2.22044604925032e-16 1.0 0.0
outer loop
vertex 5.56301376154988 6.81083409268335 0.132104811736797
vertex 1.86855892137708 6.81083409268335 1.51200000000004
vertex 5.56625080805241 6.81083409268335 0.156692621021536
endloop
endfacet
facet normal 2.22044604925032e-16 1.0 0.0
outer loop
vertex 5.56625080805241 6.81083409268335 0.156692621021536
vertex 1.86855892137708 6.81083409268335 1.51200000000004
vertex 5.57574134819035 6.81083409268335 0.179604811736797
endloop
endfacet
facet normal 2.22044604925032e-16 1.0 0.0
outer loop
vertex 5.57574134819035 6.81083409268335 0.179604811736797
vertex 1.86855892137708 6.81083409268335 1.51200000000004
vertex 5.59083861733715 6.81083409268335 0.199279955949519
endloop
endfacet
facet normal 2.22044604925032e-16 1.0 0.0
outer loop
vertex 5.59083861733715 6.81083409268335 0.199279955949519
vertex 1.86855892137708 6.81083409268335 1.51200000000004
vertex 5.61051376154988 6.81083409268335 0.214377225096318
endloop
endfacet
facet normal 2.22044604925032e-16 1.0 0.0
outer loop
vertex 5.61051376154988 6.81083409268335 0.214377225096318
vertex 1.86855892137708 6.81083409268335 1.51200000000004
vertex 5.63342595226514 6.81083409268335 0.223867765234258
endloop
endfacet
facet normal 2.22044604925032e-16 1.0 0.0
outer loop
vertex 5.63342595226514 6.81083409268335 0.223867765234258
vertex 1.86855892137708 6.81083409268335 1.51200000000004
vertex 5.65801376154988 6.81083409268335 0.227104811736796
endloop
endfacet
facet normal 2.22044604925032e-16 1.0 0.0
outer loop
vertex 5.86855892137706 6.81083409268335 0.0
vertex 5.75301376154988 6.81083409268335 0.132104811736796
vertex 5.86855892137706 6.81083409268335 1.51200000000004
endloop
endfacet
facet normal 2.22044604925032e-16 1.0 0.0
outer loop
vertex 5.75301376154988 6.81083409268335 0.132104811736796
vertex 5.86855892137706 6.81083409268335 0.0
vertex 5.74977671504734 6.81083409268335 0.107517002452057
endloop
endfacet
facet normal 2.22044604925032e-16 1.0 0.0
outer loop
vertex 5.74977671504734 6.81083409268335 0.107517002452057
vertex 5.86855892137706 6.81083409268335 0.0
vertex 5.7402861749094 6.81083409268335 0.0846048117367961
endloop
endfacet
facet normal 2.22044604925032e-16 1.0 0.0
outer loop
vertex 5.7402861749094 6.81083409268335 0.0846048117367961
vertex 5.86855892137706 6.81083409268335 0.0
vertex 5.7251889057626 6.81083409268335 0.0649296675240745
endloop
endfacet
facet normal 2.22044604925032e-16 1.0 0.0
outer loop
vertex 5.7251889057626 6.81083409268335 0.0649296675240745
vertex 5.86855892137706 6.81083409268335 0.0
vertex 5.70551376154988 6.81083409268335 0.049832398377275
endloop
endfacet
facet normal 2.22044604925032e-16 1.0 0.0
outer loop
vertex 5.70551376154988 6.81083409268335 0.049832398377275
vertex 5.86855892137706 6.81083409268335 0.0
vertex 5.68260157083462 6.81083409268335 0.0403418582393349
endloop
endfacet
facet normal 2.22044604925032e-16 1.0 0.0
outer loop
vertex 5.68260157083462 6.81083409268335 0.0403418582393349
vertex 5.86855892137706 6.81083409268335 0.0
vertex 5.65801376154988 6.81083409268335 0.0371048117367967
endloop
endfacet
facet normal 2.22044604925032e-16 1.0 0.0
outer loop
vertex 5.86855892137706 6.81083409268335 1.51200000000004
vertex 5.75301376154988 6.81083409268335 0.132104811736796
vertex 5.74977671504734 6.81083409268335 0.156692621021536
endloop
endfacet
facet normal 2.22044604925032e-16 1.0 0.0
outer loop
vertex 5.86855892137706 6.81083409268335 1.51200000000004
vertex 5.74977671504734 6.81083409268335 0.156692621021536
vertex 5.7402861749094 6.81083409268335 0.179604811736796
endloop
endfacet
facet normal 2.22044604925032e-16 1.0 0.0
outer loop
vertex 5.86855892137706 6.81083409268335 1.51200000000004
vertex 5.7402861749094 6.81083409268335 0.179604811736796
vertex 5.7251889057626 6.81083409268335 0.199279955949518
endloop
endfacet
facet normal 2.22044604925032e-16 1.0 0.0
outer loop
vertex 5.86855892137706 6.81083409268335 1.51200000000004
vertex 5.7251889057626 6.81083409268335 0.199279955949518
vertex 5.70551376154988 6.81083409268335 0.214377225096317
endloop
endfacet
facet normal 2.22044604925032e-16 1.0 0.0
outer loop
vertex 5.86855892137706 6.81083409268335 1.51200000000004
vertex 5.70551376154988 6.81083409268335 0.214377225096317
vertex 5.68260157083462 6.81083409268335 0.223867765234257
endloop
endfacet
facet normal 2.22044604925032e-16 1.0 0.0
outer loop
vertex 5.86855892137706 6.81083409268335 1.51200000000004
vertex 5.68260157083462 6.81083409268335 0.223867765234257
vertex 5.65801376154988 6.81083409268335 0.227104811736796
endloop
endfacet
facet normal 2.22044604925032e-16 1.0 0.0
outer loop
vertex 5.86855892137706 6.81083409268335 1.51200000000004
vertex 5.65801376154988 6.81083409268335 0.227104811736796
vertex 1.86855892137708 6.81083409268335 1.51200000000004
endloop
endfacet
facet normal 1.0 0.0 0.0
outer loop
vertex 5.86855892137706 3.81083409268335 0.0
vertex 5.86855892137706 4.04451634382792 0.424814599044144
vertex 5.86855892137706 3.81083409268335 1.51200000000004
endloop
endfacet
facet normal 1.0 0.0 0.0
outer loop
vertex 5.86855892137706 4.04451634382792 0.424814599044144
vertex 5.86855892137706 3.81083409268335 0.0
vertex 5.86855892137706 4.05550539030343 0.398284694005421
endloop
endfacet
facet normal 1.0 0.0 0.0
outer loop
vertex 5.86855892137706 4.05550539030343 0.398284694005421
vertex 5.86855892137706 3.81083409268335 0.0
vertex 5.86855892137706 4.07298643878919 0.3755029480749
endloop
endfacet
facet normal 1.0 0.0 0.0
outer loop
vertex 5.86855892137706 4.07298643878919 0.3755029480749
vertex 5.86855892137706 3.81083409268335 0.0
vertex 5.86855892137706 4.09576818471971 0.358021899589132
endloop
endfacet
facet normal 1.0 0.0 0.0
outer loop
vertex 5.86855892137706 4.09576818471971 0.358021899589132
vertex 5.86855892137706 3.81083409268335 0.0
vertex 5.86855892137706 4.12229808975844 0.347032853113624
endloop
endfacet
facet normal 1.0 0.0 0.0
outer loop
vertex 5.86855892137706 4.12229808975844 0.347032853113624
vertex 5.86855892137706 3.81083409268335 0.0
vertex 5.86855892137706 4.15076818471971 0.343284694005421
endloop
endfacet
facet normal 1.0 0.0 0.0
outer loop
vertex 5.86855892137706 4.15076818471971 0.343284694005421
vertex 5.86855892137706 3.81083409268335 0.0
vertex 5.86855892137706 6.81083409268335 0.0
endloop
endfacet
facet normal 1.0 0.0 0.0
outer loop
vertex 5.86855892137706 3.81083409268335 1.51200000000004
vertex 5.86855892137706 4.04451634382792 0.424814599044144
vertex 5.86855892137706 4.04076818471971 0.453284694005421
endloop
endfacet
facet normal 1.0 0.0 0.0
outer loop
vertex 5.86855892137706 4.15076818471971 0.343284694005421
vertex 5.86855892137706 6.81083409268335 0.0
vertex 5.86855892137706 4.17923827968099 0.347032853113624
endloop
endfacet
facet normal 1.0 0.0 0.0
outer loop
vertex 5.86855892137706 4.17923827968099 0.347032853113624
vertex 5.86855892137706 6.81083409268335 0.0
vertex 5.86855892137706 4.20576818471971 0.358021899589134
endloop
endfacet
facet normal 1.0 0.0 0.0
outer loop
vertex 5.86855892137706 4.20576818471971 0.358021899589134
vertex 5.86855892137706 6.81083409268335 0.0
vertex 5.86855892137706 4.22854993065023 0.375502948074901
endloop
endfacet
facet normal 1.0 0.0 0.0
outer loop
vertex 5.86855892137706 4.22854993065023 0.375502948074901
vertex 5.86855892137706 6.81083409268335 0.0
vertex 5.86855892137706 5.74232238557564 0.163999999999998
endloop
endfacet
facet normal 1.0 0.0 0.0
outer loop
vertex 5.86855892137706 4.22854993065023 0.375502948074901
vertex 5.86855892137706 5.74232238557564 0.163999999999998
vertex 5.86855892137706 4.246030979136 0.398284694005421
endloop
endfacet
facet normal 1.0 0.0 0.0
outer loop
vertex 5.86855892137706 4.246030979136 0.398284694005421
vertex 5.86855892137706 5.74232238557564 0.163999999999998
vertex 5.86855892137706 4.25702002561151 0.424814599044144
endloop
endfacet
facet normal 1.0 0.0 0.0
outer loop
vertex 5.86855892137706 4.25702002561151 0.424814599044144
vertex 5.86855892137706 5.74232238557564 0.163999999999998
vertex 5.86855892137706 4.26076818471971 0.453284694005421
endloop
endfacet
facet normal 1.0 0.0 0.0
outer loop
vertex 5.86855892137706 5.74232238557564 0.163999999999998
vertex 5.86855892137706 6.81083409268335 0.0
vertex 5.86855892137706 6.36232238557564 0.163999999999998
endloop
endfacet
facet normal 1.0 0.0 0.0
outer loop
vertex 5.86855892137706 6.36232238557564 0.163999999999998
vertex 5.86855892137706 6.81083409268335 0.0
vertex 5.86855892137706 6.36232238557564 0.564999999999999
endloop
endfacet
facet normal 1.0 0.0 0.0
outer loop
vertex 5.86855892137706 3.81083409268335 1.51200000000004
vertex 5.86855892137706 4.12229808975844 0.559536534897219
vertex 5.86855892137706 6.81083409268335 1.51200000000004
endloop
endfacet
facet normal 1.0 0.0 0.0
outer loop
vertex 5.86855892137706 4.12229808975844 0.559536534897219
vertex 5.86855892137706 3.81083409268335 1.51200000000004
vertex 5.86855892137706 4.09576818471971 0.54854748842171
endloop
endfacet
facet normal 1.0 0.0 0.0
outer loop
vertex 5.86855892137706 4.09576818471971 0.54854748842171
vertex 5.86855892137706 3.81083409268335 1.51200000000004
vertex 5.86855892137706 4.07298643878919 0.531066439935942
endloop
endfacet
facet normal 1.0 0.0 0.0
outer loop
vertex 5.86855892137706 4.07298643878919 0.531066439935942
vertex 5.86855892137706 3.81083409268335 1.51200000000004
vertex 5.86855892137706 4.05550539030343 0.508284694005421
endloop
endfacet
facet normal 1.0 0.0 0.0
outer loop
vertex 5.86855892137706 4.05550539030343 0.508284694005421
vertex 5.86855892137706 3.81083409268335 1.51200000000004
vertex 5.86855892137706 4.04451634382792 0.481754788966698
endloop
endfacet
facet normal 1.0 0.0 0.0
outer loop
vertex 5.86855892137706 4.04451634382792 0.481754788966698
vertex 5.86855892137706 3.81083409268335 1.51200000000004
vertex 5.86855892137706 4.04076818471971 0.453284694005421
endloop
endfacet
facet normal 1.0 0.0 0.0
outer loop
vertex 5.86855892137706 6.81083409268335 1.51200000000004
vertex 5.86855892137706 4.12229808975844 0.559536534897219
vertex 5.86855892137706 4.15076818471971 0.563284694005421
endloop
endfacet
facet normal 1.0 0.0 0.0
outer loop
vertex 5.86855892137706 6.81083409268335 1.51200000000004
vertex 5.86855892137706 4.15076818471971 0.563284694005421
vertex 5.86855892137706 4.17923827968099 0.559536534897218
endloop
endfacet
facet normal 1.0 0.0 0.0
outer loop
vertex 5.86855892137706 6.81083409268335 1.51200000000004
vertex 5.86855892137706 4.17923827968099 0.559536534897218
vertex 5.86855892137706 4.20576818471971 0.548547488421709
endloop
endfacet
facet normal 1.0 0.0 0.0
outer loop
vertex 5.86855892137706 6.81083409268335 1.51200000000004
vertex 5.86855892137706 4.20576818471971 0.548547488421709
vertex 5.86855892137706 4.22854993065023 0.531066439935941
endloop
endfacet
facet normal 1.0 0.0 0.0
outer loop
vertex 5.86855892137706 6.81083409268335 1.51200000000004
vertex 5.86855892137706 4.22854993065023 0.531066439935941
vertex 5.86855892137706 4.246030979136 0.508284694005421
endloop
endfacet
facet normal 1.0 0.0 0.0
outer loop
vertex 5.86855892137706 6.81083409268335 1.51200000000004
vertex 5.86855892137706 4.246030979136 0.508284694005421
vertex 5.86855892137706 4.25702002561151 0.481754788966698
endloop
endfacet
facet normal 1.0 0.0 0.0
outer loop
vertex 5.86855892137706 6.81083409268335 1.51200000000004
vertex 5.86855892137706 4.25702002561151 0.481754788966698
vertex 5.86855892137706 4.26076818471971 0.453284694005421
endloop
endfacet
facet normal 1.0 0.0 0.0
outer loop
vertex 5.86855892137706 6.81083409268335 1.51200000000004
vertex 5.86855892137706 4.26076818471971 0.453284694005421
vertex 5.86855892137706 5.74232238557564 0.564999999999999
endloop
endfacet
facet normal 1.0 0.0 0.0
outer loop
vertex 5.86855892137706 5.74232238557564 0.564999999999999
vertex 5.86855892137706 4.26076818471971 0.453284694005421
vertex 5.86855892137706 5.74232238557564 0.163999999999998
endloop
endfacet
facet normal 1.0 0.0 0.0
outer loop
vertex 5.86855892137706 6.81083409268335 1.51200000000004
vertex 5.86855892137706 5.74232238557564 0.564999999999999
vertex 5.86855892137706 6.36232238557564 0.564999999999999
endloop
endfacet
facet normal 1.0 0.0 0.0
outer loop
vertex 5.86855892137706 6.81083409268335 1.51200000000004
vertex 5.86855892137706 6.36232238557564 0.564999999999999
vertex 5.86855892137706 6.81083409268335 0.0
endloop
endfacet
facet normal 0.0 0.0 -1.0
outer loop
vertex 5.86855892137706 6.81083409268335 0.0
vertex 1.86855892137708 3.81083409268335 0.0
vertex 1.86855892137708 6.81083409268335 0.0
endloop
endfacet
facet normal 0.0 0.0 -1.0
outer loop
vertex 1.86855892137708 3.81083409268335 0.0
vertex 5.86855892137706 6.81083409268335 0.0
vertex 5.86855892137706 3.81083409268335 0.0
endloop
endfacet
endsolid STRIDE
